HIERARCHY
ROOT Hips
{
	OFFSET 0.00000 0.00000 0.00000
	CHANNELS 6 Xposition Yposition Zposition Zrotation Yrotation Xrotation 
	JOINT RightUpLegDummy
	{
		OFFSET 0 0 0
		CHANNELS 3 Zrotation Yrotation Xrotation
		JOINT RightUpLeg
		{
			OFFSET -3.52197 -3.41223 0.04002
			CHANNELS 3 Zrotation Yrotation Xrotation
			JOINT RightLeg
			{
				OFFSET 0.00006 -17.42390 1.60435
				CHANNELS 3 Zrotation Yrotation Xrotation
				JOINT RightFoot
				{
					OFFSET 0.06153 -16.50078 -1.63901
					CHANNELS 3 Zrotation Yrotation Xrotation
					JOINT RightToes
					{
						OFFSET 0.00298 -1.73825 3.34613
						CHANNELS 3 Zrotation Yrotation Xrotation
						End Site
						{
							OFFSET 0.00480 -0.05416 3.85043
						}
					}
				}
			}
		}
	}
	JOINT SpineDummy
	{
		OFFSET 0 0 0
		CHANNELS 3 Zrotation Yrotation Xrotation
		JOINT Spine
		{
			OFFSET 0.00000 4.68130 0.00000
			CHANNELS 3 Zrotation Yrotation Xrotation
			JOINT Spine1
			{
				OFFSET -0.00000 10.10138 0.05002
				CHANNELS 3 Zrotation Yrotation Xrotation
				JOINT HEadDummy
				{
					OFFSET 0 0 0
					CHANNELS 3 Zrotation Yrotation Xrotation
					JOINT Head
					{
						OFFSET -0.00000 3.43865 0.00438
						CHANNELS 3 Zrotation Yrotation Xrotation
						End Site
						{
							OFFSET -0.11417 5.02924 0.98962
						}
					}
				}
				JOINT LeftShoulder1Dummy
				{
					OFFSET 0 0 0
					CHANNELS 3 Zrotation Yrotation Xrotation
					JOINT LeftShoulder1
					{
						OFFSET 3.53937 -0.14262 -0.08662
						CHANNELS 3 Zrotation Yrotation Xrotation
						JOINT LeftArm
						{
							OFFSET 4.04833 -0.00133 0.12681
							CHANNELS 3 Zrotation Yrotation Xrotation
							JOINT LeftForeArm
							{
								OFFSET 10.33880 -0.01036 -0.55515
								CHANNELS 3 Zrotation Yrotation Xrotation
								JOINT LeftHand
								{
									OFFSET 8.69677 0.07543 0.40060
									CHANNELS 3 Zrotation Yrotation Xrotation
									End Site
									{
										OFFSET 5.28377 -0.21905 0.59205
									}
								}
							}
						}
					}
				}
				JOINT RightShoulderDummy
				{
					OFFSET 0 0 0
					CHANNELS 3 Zrotation Yrotation Xrotation
					JOINT RightShoulder
					{
						OFFSET -3.53937 -0.14262 -0.08660
						CHANNELS 3 Zrotation Yrotation Xrotation
						JOINT RightArm
						{
							OFFSET -4.04833 -0.00133 0.12683
							CHANNELS 3 Zrotation Yrotation Xrotation
							JOINT RightForeArm
							{
								OFFSET -10.37987 -0.01039 -0.55511
								CHANNELS 3 Zrotation Yrotation Xrotation
								JOINT RightHand
								{
									OFFSET -8.67398 0.07538 0.40058
									CHANNELS 3 Zrotation Yrotation Xrotation
									End Site
									{
										OFFSET -5.24810 -0.21916 0.59204
									}
								}
							}
						}
					}
				}
			}
		}
	}
	JOINT LeftUpLegDummy
	{
		OFFSET 0 0 0
		CHANNELS 3 Zrotation Yrotation Xrotation
		JOINT LeftUpLeg
		{
			OFFSET 3.52197 -3.41223 0.04002
			CHANNELS 3 Zrotation Yrotation Xrotation
			JOINT LeftLeg
			{
				OFFSET -0.00012 -17.42399 1.60337
				CHANNELS 3 Zrotation Yrotation Xrotation
				JOINT LeftFoot
				{
					OFFSET -0.09972 -16.50070 -1.63802
					CHANNELS 3 Zrotation Yrotation Xrotation
					JOINT LeftToes
					{
						OFFSET -0.01575 -1.73823 3.34611
						CHANNELS 3 Zrotation Yrotation Xrotation
						End Site
						{
							OFFSET 0.03150 -0.01868 3.85031
						}
					}
				}
			}
		}
	}
}
MOTION
Frames: 14
Frame Time: 0.033333
44.5276 39.8135 83.3856 -179.7430 2.6994 177.7670 0.0000 0.0000 0.0000 2.9529 -1.0043 1.1189 -1.4166 -7.0324 4.2059 -3.2848 0.2234 -3.4610 0.0000 -0.0000 -0.0000 0.0000 0.0000 0.0000 -0.9264 0.1019 1.9986 5.1090 -0.8466 0.4594 -0.0000 0.0000 -0.0000 1.3750 1.5114 0.6573 -0.0000 0.0000 -0.0000 -34.5032 -2.5209 2.4425 -45.5141 -14.2427 -17.0174 -10.5964 5.0476 50.7489 14.7794 -3.5986 -1.1182 -0.0000 0.0000 -0.0000 34.1371 5.0267 3.4249 40.3473 7.2248 -19.4186 9.6837 -3.6235 27.5181 -11.5451 0.8744 -0.6213 0.0000 0.0000 0.0000 0.0439 1.1780 1.3543 0.0097 0.5153 5.5580 3.4300 -0.1680 -4.6100 0.0000 0.0000 -0.0000
44.5026 39.8090 83.3856 -179.4970 2.5892 177.4100 0.0000 0.0000 0.0000 3.1743 -0.9444 1.6491 -1.4094 -7.2263 3.9487 -3.2051 0.2180 -3.3722 0.0000 -0.0000 -0.0000 0.0000 0.0000 0.0000 -0.5140 0.0248 2.5023 4.9877 -0.9156 0.3262 -0.0000 0.0000 -0.0000 1.2420 1.6646 0.5156 -0.0000 0.0000 -0.0000 -34.6436 -2.5507 2.4632 -45.4224 -14.2026 -16.9910 -10.6315 5.0490 50.6886 14.7963 -3.6980 -1.1307 -0.0000 0.0000 -0.0000 34.0879 5.0282 3.4212 40.3201 7.1215 -19.1092 9.8342 -3.4553 27.4294 -11.1880 1.3155 -0.6356 0.0000 0.0000 0.0000 0.2851 1.3289 1.5929 -0.0153 0.2572 5.8679 3.4460 -0.1691 -4.8019 0.0000 0.0000 -0.0000
44.4800 39.8091 83.3856 -179.5440 2.5051 177.4310 0.0000 0.0000 0.0000 3.0650 -1.0192 1.5978 -1.3839 -7.2215 4.0069 -3.1405 0.2140 -3.4158 0.0000 -0.0000 -0.0000 0.0000 0.0000 0.0000 -0.7919 -0.0049 2.3811 5.4244 -1.0262 0.4577 -0.0000 0.0000 -0.0000 1.1104 1.7968 0.3695 -0.0000 0.0000 -0.0000 -35.1962 -2.6568 2.5410 -45.0685 -14.1273 -16.8996 -10.7418 5.0553 50.4358 14.8070 -3.7454 -1.1372 -0.0000 0.0000 -0.0000 33.7367 4.9803 3.3720 40.4433 7.0920 -18.7917 9.9839 -3.3485 27.4083 -10.6924 1.8923 -0.6552 0.0000 0.0000 0.0000 0.1708 1.2346 1.5834 0.0310 0.2737 5.8138 3.4463 -0.1691 -4.7758 0.0000 0.0000 -0.0000
44.4527 39.8090 83.3879 -179.4650 2.4772 177.4620 0.0000 0.0000 0.0000 3.0863 -1.0292 1.6005 -1.3372 -7.2359 3.9304 -3.1143 0.2122 -3.3779 0.0000 -0.0000 -0.0000 0.0000 0.0000 0.0000 -0.9429 0.0021 2.3348 5.8566 -1.0996 0.5086 -0.0000 0.0000 -0.0000 1.0012 1.8333 0.1862 -0.0000 0.0000 -0.0000 -35.7240 -2.7674 2.6202 -44.7672 -14.0377 -16.7393 -10.8887 5.0660 50.0223 14.8426 -3.5714 -1.1190 -0.0000 0.0000 -0.0000 33.4245 4.9224 3.3224 40.5529 7.1115 -18.6245 10.0854 -3.3704 27.2099 -10.7976 1.8416 -0.6569 0.0000 0.0000 0.0000 0.1917 1.2153 1.5002 0.0696 0.2590 5.9063 3.4613 -0.1693 -4.8228 0.0000 0.0000 -0.0000
44.4241 39.8063 83.3913 -179.3430 2.5463 177.5700 0.0000 0.0000 0.0000 3.1784 -0.9581 1.4899 -1.3354 -7.2340 3.9035 -3.0559 0.2083 -3.3373 0.0000 -0.0000 -0.0000 0.0000 0.0000 0.0000 -0.7848 0.0072 2.3330 5.7773 -1.0804 0.4260 -0.0000 0.0000 -0.0000 0.9809 1.7132 -0.0148 -0.0000 0.0000 -0.0000 -35.6291 -2.7848 2.6215 -44.9177 -13.9668 -16.5324 -11.0169 5.0776 49.5819 14.9562 -3.3017 -1.0950 -0.0000 0.0000 -0.0000 33.6384 4.9438 3.3491 40.3568 7.0304 -18.4760 10.2020 -3.3419 26.8046 -11.3026 1.4964 -0.6579 0.0000 0.0000 0.0000 0.2946 1.2785 1.2960 0.0432 0.2570 6.0921 3.4789 -0.1700 -4.9142 0.0000 0.0000 -0.0000
44.3960 39.8019 83.3964 -179.2510 2.6600 177.7170 0.0000 0.0000 0.0000 3.2630 -0.8476 1.2860 -1.3916 -7.2173 3.9688 -2.9757 0.2031 -3.3335 0.0000 -0.0000 -0.0000 0.0000 0.0000 0.0000 -0.3884 -0.0508 2.2294 5.2270 -1.0501 0.4842 -0.0000 0.0000 -0.0000 1.1804 1.5465 -0.1221 -0.0000 0.0000 -0.0000 -35.0207 -2.6916 2.5443 -45.4305 -13.9907 -16.3397 -11.0825 5.0855 49.2869 15.0995 -3.2355 -1.0978 -0.0000 0.0000 -0.0000 34.1534 5.0333 3.4290 40.0349 7.0021 -18.3901 10.2584 -3.2595 26.6479 -11.4069 1.5830 -0.6718 0.0000 0.0000 0.0000 0.3998 1.3851 1.0658 -0.0513 0.2650 6.2470 3.5058 -0.1713 -4.9900 0.0000 0.0000 -0.0000
44.3704 39.8020 83.4031 -179.1920 2.7417 177.8380 0.0000 0.0000 0.0000 3.3076 -0.7765 1.1625 -1.4163 -7.1906 3.9223 -2.9560 0.2017 -3.2859 0.0000 -0.0000 -0.0000 0.0000 0.0000 0.0000 0.0399 -0.1442 1.7903 4.5529 -1.0598 1.1595 -0.0000 0.0000 -0.0000 1.6416 1.4618 -0.2266 -0.0000 0.0000 -0.0000 -34.1571 -2.5502 2.4331 -46.1894 -14.3773 -16.2926 -10.9547 5.0835 49.4090 15.1217 -3.4952 -1.1314 -0.0000 0.0000 -0.0000 34.5019 5.1020 3.4869 39.9224 7.3232 -18.4631 10.1968 -3.2340 26.6469 -11.1824 1.6659 -0.6659 0.0000 0.0000 0.0000 0.4765 1.4820 0.9268 -0.1554 0.2547 6.2641 3.5613 -0.1746 -4.9975 0.0000 0.0000 -0.0000
44.3471 39.8099 83.4069 -179.1400 2.7618 177.8990 0.0000 0.0000 0.0000 3.3120 -0.7887 1.2189 -1.3488 -7.1524 3.6522 -2.9763 0.2026 -3.1416 0.0000 -0.0000 -0.0000 0.0000 0.0000 0.0000 0.2667 -0.2179 1.2721 4.1844 -1.1068 2.0327 -0.0000 0.0000 -0.0000 2.1097 1.4104 -0.2759 -0.0000 0.0000 -0.0000 -33.5285 -2.4275 2.3461 -46.7679 -14.9376 -16.4187 -10.7041 5.0735 49.8500 14.9551 -3.8822 -1.1657 -0.0000 0.0000 -0.0000 34.5794 5.1194 3.5007 39.9266 7.8069 -18.4189 10.2138 -3.3324 26.1584 -11.5273 0.8230 -0.6080 0.0000 0.0000 0.0000 0.5245 1.5399 0.9172 -0.2201 0.2195 6.1455 3.6297 -0.1786 -4.9408 0.0000 0.0000 -0.0000
44.3235 39.8191 83.4030 -179.1090 2.7528 177.8910 0.0000 0.0000 0.0000 3.2772 -0.8497 1.3650 -1.2591 -7.1029 3.3786 -2.9291 0.1992 -3.0085 0.0000 -0.0000 -0.0000 0.0000 0.0000 0.0000 0.1885 -0.2199 1.1300 4.2823 -1.1377 2.3343 -0.0000 0.0000 -0.0000 2.2351 1.3140 -0.2248 -0.0000 0.0000 -0.0000 -33.3902 -2.3955 2.3253 -46.8786 -15.2686 -16.5823 -10.5464 5.0655 50.1799 14.7535 -4.0603 -1.1708 -0.0000 0.0000 -0.0000 34.5378 5.1063 3.4917 39.8563 8.0218 -18.0686 10.4299 -3.5013 25.2359 -12.5306 -0.4609 -0.5344 0.0000 0.0000 0.0000 0.5284 1.5550 1.0029 -0.2419 0.1999 5.9981 3.6637 -0.1803 -4.8799 0.0000 0.0000 -0.0000
44.2977 39.8213 83.3929 -179.1020 2.7524 177.8330 0.0000 0.0000 0.0000 3.2271 -0.8993 1.4670 -1.2299 -7.0543 3.3308 -2.8229 0.1923 -3.0031 0.0000 -0.0000 -0.0000 0.0000 0.0000 0.0000 -0.0645 -0.1294 1.4457 4.6569 -1.0936 1.9225 -0.0000 0.0000 -0.0000 1.9972 1.1466 -0.1483 -0.0000 0.0000 -0.0000 -33.6813 -2.5222 2.3930 -46.5676 -15.1964 -16.6207 -10.5968 5.0662 50.1354 14.6938 -3.8687 -1.1429 -0.0000 0.0000 -0.0000 34.4347 5.0736 3.4696 39.8297 7.7934 -17.7721 10.6174 -3.5807 24.8034 -13.2010 -0.8788 -0.5185 0.0000 0.0000 0.0000 0.4901 1.5363 1.1106 -0.2287 0.2271 5.9365 3.6591 -0.1794 -4.8707 0.0000 0.0000 -0.0000
44.2725 39.8180 83.3832 -179.0680 2.7212 177.7730 0.0000 0.0000 0.0000 3.2205 -0.9094 1.5256 -1.2418 -7.0724 3.3827 -2.7696 0.1890 -3.0570 0.0000 -0.0000 -0.0000 0.0000 0.0000 0.0000 -0.3001 -0.0734 1.8494 5.0976 -1.0919 1.3683 -0.0000 0.0000 -0.0000 1.6736 1.1335 -0.1033 -0.0000 0.0000 -0.0000 -34.2812 -2.7113 2.5056 -46.0066 -14.8337 -16.4912 -10.7972 5.0744 49.7780 14.7511 -3.4731 -1.1001 -0.0000 0.0000 -0.0000 34.1514 5.0220 3.4242 40.1117 7.8638 -18.8904 10.0219 -4.0606 26.3648 -13.0136 -0.2319 -0.5775 0.0000 0.0000 0.0000 0.4688 1.5091 1.1596 -0.1936 0.2276 5.9940 3.6809 -0.1799 -4.9125 0.0000 0.0000 -0.0000
44.2506 39.8182 83.3748 -179.0110 2.5579 177.6990 0.0000 0.0000 0.0000 3.2346 -0.9335 1.6747 -1.2302 -7.2125 3.2927 -2.7682 0.1889 -3.0428 0.0000 -0.0000 -0.0000 0.0000 0.0000 0.0000 -0.4732 -0.2172 2.1097 5.4569 -1.2937 1.0945 -0.0000 0.0000 -0.0000 1.5314 1.4973 -0.0428 -0.0000 0.0000 -0.0000 -34.8612 -2.7531 2.5591 -45.4818 -14.4213 -16.2659 -11.0301 5.0853 49.3171 14.8451 -3.1405 -1.0671 -0.0000 0.0000 -0.0000 33.8835 5.0009 3.3927 40.4467 9.0484 -22.1951 8.2773 -5.6844 30.3265 -12.4709 0.7449 -0.6529 0.0000 0.0000 0.0000 0.4637 1.4693 1.2139 -0.1531 0.1004 6.0409 3.7664 -0.1842 -4.9286 0.0000 0.0000 -0.0000
44.2320 39.8247 83.3547 -178.9450 2.3058 177.5750 0.0000 0.0000 0.0000 3.2522 -0.9854 1.9903 -1.1880 -7.4213 3.0204 -2.7185 0.1854 -2.9476 0.0000 -0.0000 -0.0000 0.0000 0.0000 0.0000 -0.5273 -0.4657 2.1859 5.5029 -1.5633 1.2005 -0.0000 0.0000 -0.0000 1.6784 1.7876 0.0251 -0.0000 0.0000 -0.0000 -34.8171 -2.6129 2.4993 -45.4533 -14.3241 -16.0726 -11.1639 5.0919 49.0355 15.0437 -2.9254 -1.0555 -0.0000 0.0000 -0.0000 34.0504 5.0512 3.4272 40.1943 8.9977 -21.5335 8.6153 -5.5548 29.7143 -12.3168 0.5861 -0.6285 0.0000 0.0000 0.0000 0.4755 1.4402 1.3744 -0.1288 -0.1264 6.0012 3.8601 -0.1886 -4.9093 0.0000 0.0000 -0.0000
44.2153 39.8314 83.3176 -178.8560 2.0613 177.3950 0.0000 0.0000 0.0000 3.2975 -1.0324 2.4197 -1.1424 -7.6312 2.7023 -2.6253 0.1792 -2.8576 0.0000 -0.0000 -0.0000 0.0000 0.0000 0.0000 -0.5275 -0.6339 2.0883 5.4371 -1.7455 1.6223 -0.0000 0.0000 -0.0000 1.8247 1.7496 -0.0249 -0.0000 0.0000 -0.0000 -34.4292 -2.4667 2.4160 -45.7013 -14.6235 -16.0324 -11.1603 5.0916 49.0482 15.3056 -2.7788 -1.0562 -0.0000 0.0000 -0.0000 34.3343 5.0983 3.4707 39.9573 8.9713 -21.1474 8.8152 -5.5630 29.3830 -11.9216 1.0850 -0.6551 0.0000 0.0000 0.0000 0.5280 1.4488 1.6319 -0.1220 -0.3786 5.9552 3.9029 -0.1892 -4.9230 0.0000 0.0000 -0.0000
